<mxfile host="65bd71144e">
    <diagram id="avSo4TBjvxevpZzr9GbH" name="第 1 页">
        <mxGraphModel dx="1212" dy="992" grid="0" gridSize="10" guides="1" tooltips="1" connect="1" arrows="1" fold="1" page="0" pageScale="1" pageWidth="827" pageHeight="1169" math="0" shadow="0">
            <root>
                <mxCell id="0"/>
                <mxCell id="1" parent="0"/>
                <mxCell id="20" style="edgeStyle=none;html=1;exitX=0.5;exitY=0;exitDx=0;exitDy=0;fontColor=#FFFFFF;dashed=1;endArrow=open;endFill=0;" parent="1" source="2" edge="1">
                    <mxGeometry relative="1" as="geometry">
                        <mxPoint x="120" y="330" as="targetPoint"/>
                    </mxGeometry>
                </mxCell>
                <mxCell id="26" value="create" style="edgeLabel;html=1;align=center;verticalAlign=middle;resizable=0;points=[];fontColor=#FFFFFF;" parent="20" vertex="1" connectable="0">
                    <mxGeometry x="-0.0558" y="-2" relative="1" as="geometry">
                        <mxPoint as="offset"/>
                    </mxGeometry>
                </mxCell>
                <mxCell id="2" value="Simple Coffee Factory" style="swimlane;fontStyle=0;childLayout=stackLayout;horizontal=1;startSize=30;horizontalStack=0;resizeParent=1;resizeParentMax=0;resizeLast=0;collapsible=1;marginBottom=0;fillColor=#f9f7ed;strokeColor=#36393d;fontColor=#000000;" parent="1" vertex="1">
                    <mxGeometry x="120" y="390" width="150" height="90" as="geometry"/>
                </mxCell>
                <mxCell id="3" value="..." style="text;strokeColor=#36393d;fillColor=#f9f7ed;align=left;verticalAlign=middle;spacingLeft=4;spacingRight=4;overflow=hidden;points=[[0,0.5],[1,0.5]];portConstraint=eastwest;rotatable=0;fontColor=#000000;" parent="2" vertex="1">
                    <mxGeometry y="30" width="150" height="30" as="geometry"/>
                </mxCell>
                <mxCell id="4" value="+ createProduct: Product" style="text;strokeColor=#36393d;fillColor=#f9f7ed;align=left;verticalAlign=middle;spacingLeft=4;spacingRight=4;overflow=hidden;points=[[0,0.5],[1,0.5]];portConstraint=eastwest;rotatable=0;fontColor=#000000;" parent="2" vertex="1">
                    <mxGeometry y="60" width="150" height="30" as="geometry"/>
                </mxCell>
                <mxCell id="7" value="Moca" style="swimlane;fontStyle=0;childLayout=stackLayout;horizontal=1;startSize=30;horizontalStack=0;resizeParent=1;resizeParentMax=0;resizeLast=0;collapsible=1;marginBottom=0;fillColor=#f9f7ed;strokeColor=#36393d;fontColor=#000000;" parent="1" vertex="1">
                    <mxGeometry x="200" y="260" width="140" height="60" as="geometry"/>
                </mxCell>
                <mxCell id="8" value="+ show(): void" style="text;strokeColor=#36393d;fillColor=#f9f7ed;align=left;verticalAlign=middle;spacingLeft=4;spacingRight=4;overflow=hidden;points=[[0,0.5],[1,0.5]];portConstraint=eastwest;rotatable=0;fontColor=#000000;" parent="7" vertex="1">
                    <mxGeometry y="30" width="140" height="30" as="geometry"/>
                </mxCell>
                <mxCell id="11" value="Latte" style="swimlane;fontStyle=0;childLayout=stackLayout;horizontal=1;startSize=30;horizontalStack=0;resizeParent=1;resizeParentMax=0;resizeLast=0;collapsible=1;marginBottom=0;fillColor=#f9f7ed;strokeColor=#36393d;fontColor=#000000;" parent="1" vertex="1">
                    <mxGeometry x="40" y="260" width="140" height="60" as="geometry"/>
                </mxCell>
                <mxCell id="12" value="+ show(): void" style="text;strokeColor=#36393d;fillColor=#f9f7ed;align=left;verticalAlign=middle;spacingLeft=4;spacingRight=4;overflow=hidden;points=[[0,0.5],[1,0.5]];portConstraint=eastwest;rotatable=0;fontColor=#000000;" parent="11" vertex="1">
                    <mxGeometry y="30" width="140" height="30" as="geometry"/>
                </mxCell>
                <mxCell id="15" value="" style="ellipse;whiteSpace=wrap;html=1;aspect=fixed;fontColor=#000000;" parent="1" vertex="1">
                    <mxGeometry x="173" y="100" width="40" height="40" as="geometry"/>
                </mxCell>
                <mxCell id="16" value="" style="endArrow=none;html=1;fontColor=#000000;" parent="1" edge="1">
                    <mxGeometry width="50" height="50" relative="1" as="geometry">
                        <mxPoint x="143" y="170" as="sourcePoint"/>
                        <mxPoint x="243" y="170" as="targetPoint"/>
                    </mxGeometry>
                </mxCell>
                <mxCell id="17" value="Coffee" style="text;html=1;strokeColor=none;fillColor=none;align=center;verticalAlign=middle;whiteSpace=wrap;rounded=0;fontColor=#FFFFFF;" parent="1" vertex="1">
                    <mxGeometry x="163" y="140" width="60" height="30" as="geometry"/>
                </mxCell>
                <mxCell id="18" value="+ show() : void" style="text;html=1;strokeColor=none;fillColor=none;align=center;verticalAlign=middle;whiteSpace=wrap;rounded=0;fontColor=#FFFFFF;" parent="1" vertex="1">
                    <mxGeometry x="143" y="170" width="100" height="30" as="geometry"/>
                </mxCell>
                <mxCell id="19" value="" style="endArrow=open;html=1;fontColor=#FFFFFF;dashed=1;endFill=0;" parent="1" edge="1">
                    <mxGeometry width="50" height="50" relative="1" as="geometry">
                        <mxPoint x="200" y="390" as="sourcePoint"/>
                        <mxPoint x="280" y="330" as="targetPoint"/>
                    </mxGeometry>
                </mxCell>
                <mxCell id="25" value="create" style="edgeLabel;html=1;align=center;verticalAlign=middle;resizable=0;points=[];fontColor=#FFFFFF;" parent="19" vertex="1" connectable="0">
                    <mxGeometry x="0.1056" relative="1" as="geometry">
                        <mxPoint as="offset"/>
                    </mxGeometry>
                </mxCell>
                <mxCell id="22" value="" style="endArrow=block;html=1;fontColor=#FFFFFF;exitX=0.5;exitY=0;exitDx=0;exitDy=0;dashed=1;endFill=0;" parent="1" source="11" edge="1">
                    <mxGeometry width="50" height="50" relative="1" as="geometry">
                        <mxPoint x="100" y="260" as="sourcePoint"/>
                        <mxPoint x="150" y="210" as="targetPoint"/>
                    </mxGeometry>
                </mxCell>
                <mxCell id="23" value="" style="endArrow=block;html=1;fontColor=#FFFFFF;exitX=0.5;exitY=0;exitDx=0;exitDy=0;dashed=1;endFill=0;" parent="1" source="7" edge="1">
                    <mxGeometry width="50" height="50" relative="1" as="geometry">
                        <mxPoint x="120" y="270" as="sourcePoint"/>
                        <mxPoint x="220" y="210" as="targetPoint"/>
                    </mxGeometry>
                </mxCell>
                <mxCell id="29" value="ChinanCoffeeFactory" style="swimlane;fontStyle=0;childLayout=stackLayout;horizontal=1;startSize=30;horizontalStack=0;resizeParent=1;resizeParentMax=0;resizeLast=0;collapsible=1;marginBottom=0;fillColor=#f9f7ed;strokeColor=#36393d;fontColor=#000000;" parent="1" vertex="1">
                    <mxGeometry x="460" y="400" width="160" height="100" as="geometry"/>
                </mxCell>
                <mxCell id="30" value="- coffee: Coffee" style="text;strokeColor=#36393d;fillColor=#f9f7ed;align=left;verticalAlign=middle;spacingLeft=4;spacingRight=4;overflow=hidden;points=[[0,0.5],[1,0.5]];portConstraint=eastwest;rotatable=0;fontColor=#000000;" parent="29" vertex="1">
                    <mxGeometry y="30" width="160" height="30" as="geometry"/>
                </mxCell>
                <mxCell id="31" value="+ ProduceCoffee: Coffee &#10;+ getCoffeeList: void" style="text;strokeColor=#36393d;fillColor=#f9f7ed;align=left;verticalAlign=middle;spacingLeft=4;spacingRight=4;overflow=hidden;points=[[0,0.5],[1,0.5]];portConstraint=eastwest;rotatable=0;fontColor=#000000;" parent="29" vertex="1">
                    <mxGeometry y="60" width="160" height="40" as="geometry"/>
                </mxCell>
                <mxCell id="32" value="Moca" style="swimlane;fontStyle=0;childLayout=stackLayout;horizontal=1;startSize=30;horizontalStack=0;resizeParent=1;resizeParentMax=0;resizeLast=0;collapsible=1;marginBottom=0;fillColor=#f9f7ed;strokeColor=#36393d;fontColor=#000000;" parent="1" vertex="1">
                    <mxGeometry x="650" y="260" width="140" height="60" as="geometry"/>
                </mxCell>
                <mxCell id="33" value="+ show() : void" style="text;strokeColor=#36393d;fillColor=#f9f7ed;align=left;verticalAlign=middle;spacingLeft=4;spacingRight=4;overflow=hidden;points=[[0,0.5],[1,0.5]];portConstraint=eastwest;rotatable=0;fontColor=#000000;" parent="32" vertex="1">
                    <mxGeometry y="30" width="140" height="30" as="geometry"/>
                </mxCell>
                <mxCell id="34" value="Latte" style="swimlane;fontStyle=0;childLayout=stackLayout;horizontal=1;startSize=30;horizontalStack=0;resizeParent=1;resizeParentMax=0;resizeLast=0;collapsible=1;marginBottom=0;fillColor=#f9f7ed;strokeColor=#36393d;fontColor=#000000;" parent="1" vertex="1">
                    <mxGeometry x="465" y="260" width="150" height="60" as="geometry"/>
                </mxCell>
                <mxCell id="35" value="+ show() : void" style="text;strokeColor=#36393d;fillColor=#f9f7ed;align=left;verticalAlign=middle;spacingLeft=4;spacingRight=4;overflow=hidden;points=[[0,0.5],[1,0.5]];portConstraint=eastwest;rotatable=0;fontColor=#000000;" parent="34" vertex="1">
                    <mxGeometry y="30" width="150" height="30" as="geometry"/>
                </mxCell>
                <mxCell id="36" value="" style="ellipse;whiteSpace=wrap;html=1;aspect=fixed;fontColor=#000000;" parent="1" vertex="1">
                    <mxGeometry x="620" y="100" width="40" height="40" as="geometry"/>
                </mxCell>
                <mxCell id="37" value="" style="endArrow=none;html=1;fontColor=#000000;" parent="1" edge="1">
                    <mxGeometry width="50" height="50" relative="1" as="geometry">
                        <mxPoint x="590" y="170" as="sourcePoint"/>
                        <mxPoint x="690" y="170" as="targetPoint"/>
                    </mxGeometry>
                </mxCell>
                <mxCell id="38" value="&lt;span style=&quot;color: rgb(255 , 255 , 255)&quot;&gt;Coffee&lt;/span&gt;" style="text;html=1;strokeColor=none;fillColor=none;align=center;verticalAlign=middle;whiteSpace=wrap;rounded=0;fontColor=default;" parent="1" vertex="1">
                    <mxGeometry x="610" y="140" width="60" height="30" as="geometry"/>
                </mxCell>
                <mxCell id="39" value="+ show() : void" style="text;html=1;strokeColor=none;fillColor=none;align=center;verticalAlign=middle;whiteSpace=wrap;rounded=0;fontColor=#FFFFFF;" parent="1" vertex="1">
                    <mxGeometry x="590" y="170" width="100" height="30" as="geometry"/>
                </mxCell>
                <mxCell id="42" value="" style="endArrow=block;html=1;fontColor=#FFFFFF;exitX=0.5;exitY=0;exitDx=0;exitDy=0;dashed=1;endFill=0;entryX=0;entryY=1;entryDx=0;entryDy=0;" parent="1" source="34" target="39" edge="1">
                    <mxGeometry width="50" height="50" relative="1" as="geometry">
                        <mxPoint x="530" y="260" as="sourcePoint"/>
                        <mxPoint x="580" y="210" as="targetPoint"/>
                    </mxGeometry>
                </mxCell>
                <mxCell id="43" value="" style="endArrow=block;html=1;fontColor=#FFFFFF;exitX=0.5;exitY=0;exitDx=0;exitDy=0;dashed=1;endFill=0;entryX=1;entryY=1;entryDx=0;entryDy=0;" parent="1" source="32" target="39" edge="1">
                    <mxGeometry width="50" height="50" relative="1" as="geometry">
                        <mxPoint x="550" y="270" as="sourcePoint"/>
                        <mxPoint x="650" y="210" as="targetPoint"/>
                    </mxGeometry>
                </mxCell>
                <mxCell id="44" value="JapanCoffeeFactory" style="swimlane;fontStyle=0;childLayout=stackLayout;horizontal=1;startSize=30;horizontalStack=0;resizeParent=1;resizeParentMax=0;resizeLast=0;collapsible=1;marginBottom=0;fillColor=#f9f7ed;strokeColor=#36393d;fontColor=#000000;" parent="1" vertex="1">
                    <mxGeometry x="640" y="400" width="160" height="100" as="geometry"/>
                </mxCell>
                <mxCell id="45" value="- coffee: Coffee" style="text;strokeColor=#36393d;fillColor=#f9f7ed;align=left;verticalAlign=middle;spacingLeft=4;spacingRight=4;overflow=hidden;points=[[0,0.5],[1,0.5]];portConstraint=eastwest;rotatable=0;fontColor=#000000;" parent="44" vertex="1">
                    <mxGeometry y="30" width="160" height="30" as="geometry"/>
                </mxCell>
                <mxCell id="46" value="+ ProduceCoffee: Coffee &#10;+ getCoffeeList: void" style="text;strokeColor=#36393d;fillColor=#f9f7ed;align=left;verticalAlign=middle;spacingLeft=4;spacingRight=4;overflow=hidden;points=[[0,0.5],[1,0.5]];portConstraint=eastwest;rotatable=0;fontColor=#000000;" parent="44" vertex="1">
                    <mxGeometry y="60" width="160" height="40" as="geometry"/>
                </mxCell>
                <mxCell id="47" value="" style="ellipse;whiteSpace=wrap;html=1;aspect=fixed;fontColor=#000000;" parent="1" vertex="1">
                    <mxGeometry x="620" y="540" width="40" height="40" as="geometry"/>
                </mxCell>
                <mxCell id="48" value="" style="endArrow=none;html=1;fontColor=#000000;" parent="1" edge="1">
                    <mxGeometry width="50" height="50" relative="1" as="geometry">
                        <mxPoint x="590" y="610" as="sourcePoint"/>
                        <mxPoint x="690" y="610" as="targetPoint"/>
                    </mxGeometry>
                </mxCell>
                <mxCell id="49" value="Coffee Factory" style="text;html=1;strokeColor=none;fillColor=none;align=center;verticalAlign=middle;whiteSpace=wrap;rounded=0;fontColor=#FFFFFF;" parent="1" vertex="1">
                    <mxGeometry x="580" y="580" width="110" height="30" as="geometry"/>
                </mxCell>
                <mxCell id="50" value="&lt;span style=&quot;text-align: left;&quot;&gt;+ ProduceCoffee: Coffee&amp;nbsp;&lt;/span&gt;&lt;br style=&quot;padding: 0px; margin: 0px; text-align: left;&quot;&gt;&lt;span style=&quot;text-align: left;&quot;&gt;+ getCoffeeList: void&lt;/span&gt;&lt;span style=&quot;text-align: left&quot;&gt;&lt;br&gt;&lt;/span&gt;" style="text;html=1;strokeColor=none;fillColor=none;align=center;verticalAlign=middle;whiteSpace=wrap;rounded=0;fontColor=default;" parent="1" vertex="1">
                    <mxGeometry x="565" y="610" width="150" height="30" as="geometry"/>
                </mxCell>
                <mxCell id="51" value="" style="endArrow=block;html=1;fontColor=#FFFFFF;exitX=0.5;exitY=1;exitDx=0;exitDy=0;dashed=1;endFill=0;" parent="1" source="29" edge="1">
                    <mxGeometry width="50" height="50" relative="1" as="geometry">
                        <mxPoint x="510" y="560" as="sourcePoint"/>
                        <mxPoint x="590" y="540" as="targetPoint"/>
                    </mxGeometry>
                </mxCell>
                <mxCell id="52" value="" style="endArrow=block;html=1;fontColor=#FFFFFF;exitX=0.505;exitY=1.064;exitDx=0;exitDy=0;dashed=1;endFill=0;exitPerimeter=0;" parent="1" source="46" edge="1">
                    <mxGeometry width="50" height="50" relative="1" as="geometry">
                        <mxPoint x="550" y="500" as="sourcePoint"/>
                        <mxPoint x="680" y="540" as="targetPoint"/>
                    </mxGeometry>
                </mxCell>
                <mxCell id="53" value="" style="endArrow=open;html=1;fontColor=#FFFFFF;dashed=1;endFill=0;exitX=0.5;exitY=0;exitDx=0;exitDy=0;entryX=0.503;entryY=1.049;entryDx=0;entryDy=0;entryPerimeter=0;" parent="1" source="29" target="35" edge="1">
                    <mxGeometry width="50" height="50" relative="1" as="geometry">
                        <mxPoint x="470" y="380" as="sourcePoint"/>
                        <mxPoint x="550" y="320" as="targetPoint"/>
                    </mxGeometry>
                </mxCell>
                <mxCell id="54" value="create" style="edgeLabel;html=1;align=center;verticalAlign=middle;resizable=0;points=[];fontColor=#FFFFFF;" parent="53" vertex="1" connectable="0">
                    <mxGeometry x="0.1056" relative="1" as="geometry">
                        <mxPoint as="offset"/>
                    </mxGeometry>
                </mxCell>
                <mxCell id="57" value="" style="endArrow=open;html=1;fontColor=#FFFFFF;dashed=1;endFill=0;" parent="1" target="33" edge="1">
                    <mxGeometry width="50" height="50" relative="1" as="geometry">
                        <mxPoint x="720" y="399" as="sourcePoint"/>
                        <mxPoint x="699.99" y="320" as="targetPoint"/>
                    </mxGeometry>
                </mxCell>
                <mxCell id="58" value="create" style="edgeLabel;html=1;align=center;verticalAlign=middle;resizable=0;points=[];fontColor=#FFFFFF;" parent="57" vertex="1" connectable="0">
                    <mxGeometry x="0.1056" relative="1" as="geometry">
                        <mxPoint as="offset"/>
                    </mxGeometry>
                </mxCell>
                <mxCell id="60" value="Client" style="swimlane;fontStyle=0;childLayout=stackLayout;horizontal=1;startSize=30;horizontalStack=0;resizeParent=1;resizeParentMax=0;resizeLast=0;collapsible=1;marginBottom=0;fontColor=#FFFFFF;" parent="1" vertex="1">
                    <mxGeometry x="910" y="290" width="160" height="60" as="geometry"/>
                </mxCell>
                <mxCell id="61" value="+ getCoffeeList: void" style="text;strokeColor=none;fillColor=none;align=left;verticalAlign=middle;spacingLeft=4;spacingRight=4;overflow=hidden;points=[[0,0.5],[1,0.5]];portConstraint=eastwest;rotatable=0;fontColor=#FFFFFF;" parent="60" vertex="1">
                    <mxGeometry y="30" width="160" height="30" as="geometry"/>
                </mxCell>
                <mxCell id="64" value="" style="endArrow=open;html=1;dashed=1;fontColor=#FFFFFF;exitX=0.5;exitY=0;exitDx=0;exitDy=0;endFill=0;" parent="1" source="60" edge="1">
                    <mxGeometry width="50" height="50" relative="1" as="geometry">
                        <mxPoint x="970" y="280" as="sourcePoint"/>
                        <mxPoint x="700" y="150" as="targetPoint"/>
                        <Array as="points">
                            <mxPoint x="990" y="150"/>
                        </Array>
                    </mxGeometry>
                </mxCell>
                <mxCell id="65" value="" style="endArrow=open;html=1;dashed=1;fontColor=#FFFFFF;exitX=0.521;exitY=1.006;exitDx=0;exitDy=0;exitPerimeter=0;endFill=0;" parent="1" source="61" edge="1">
                    <mxGeometry width="50" height="50" relative="1" as="geometry">
                        <mxPoint x="990" y="300" as="sourcePoint"/>
                        <mxPoint x="740" y="580" as="targetPoint"/>
                        <Array as="points">
                            <mxPoint x="993" y="580"/>
                        </Array>
                    </mxGeometry>
                </mxCell>
                <mxCell id="66" value="ChinaDrinkingFactory" style="swimlane;fontStyle=0;childLayout=stackLayout;horizontal=1;startSize=30;horizontalStack=0;resizeParent=1;resizeParentMax=0;resizeLast=0;collapsible=1;marginBottom=0;fillColor=#f9f7ed;strokeColor=#36393d;fontColor=#000000;" parent="1" vertex="1">
                    <mxGeometry x="1150" y="390" width="200" height="110" as="geometry"/>
                </mxCell>
                <mxCell id="67" value="..." style="text;strokeColor=#36393d;fillColor=#f9f7ed;align=left;verticalAlign=middle;spacingLeft=4;spacingRight=4;overflow=hidden;points=[[0,0.5],[1,0.5]];portConstraint=eastwest;rotatable=0;fontColor=#000000;" parent="66" vertex="1">
                    <mxGeometry y="30" width="200" height="30" as="geometry"/>
                </mxCell>
                <mxCell id="68" value="+ produceTea(): Tea&#10;+ produceCoffee(): Coffee&#10;+ produceSodas(): Sodas" style="text;strokeColor=#36393d;fillColor=#f9f7ed;align=left;verticalAlign=middle;spacingLeft=4;spacingRight=4;overflow=hidden;points=[[0,0.5],[1,0.5]];portConstraint=eastwest;rotatable=0;fontColor=#000000;" parent="66" vertex="1">
                    <mxGeometry y="60" width="200" height="50" as="geometry"/>
                </mxCell>
                <mxCell id="69" value="JapanDrinkingFactory" style="swimlane;fontStyle=0;childLayout=stackLayout;horizontal=1;startSize=30;horizontalStack=0;resizeParent=1;resizeParentMax=0;resizeLast=0;collapsible=1;marginBottom=0;fillColor=#f9f7ed;strokeColor=#36393d;fontColor=#000000;" parent="1" vertex="1">
                    <mxGeometry x="1480.8" y="390" width="200" height="110" as="geometry"/>
                </mxCell>
                <mxCell id="70" value="..." style="text;strokeColor=#36393d;fillColor=#f9f7ed;align=left;verticalAlign=middle;spacingLeft=4;spacingRight=4;overflow=hidden;points=[[0,0.5],[1,0.5]];portConstraint=eastwest;rotatable=0;fontColor=#000000;" parent="69" vertex="1">
                    <mxGeometry y="30" width="200" height="30" as="geometry"/>
                </mxCell>
                <mxCell id="71" value="+ produceTea(): Tea&#10;+ produceCoffee(): Coffee&#10;+ produceSodas(): Sodas" style="text;strokeColor=#36393d;fillColor=#f9f7ed;align=left;verticalAlign=middle;spacingLeft=4;spacingRight=4;overflow=hidden;points=[[0,0.5],[1,0.5]];portConstraint=eastwest;rotatable=0;fontColor=#000000;" parent="69" vertex="1">
                    <mxGeometry y="60" width="200" height="50" as="geometry"/>
                </mxCell>
                <mxCell id="78" value="" style="ellipse;whiteSpace=wrap;html=1;aspect=fixed;fontColor=#000000;" parent="1" vertex="1">
                    <mxGeometry x="1402.9" y="550" width="40" height="40" as="geometry"/>
                </mxCell>
                <mxCell id="79" value="" style="endArrow=none;html=1;fontColor=#000000;" parent="1" edge="1">
                    <mxGeometry width="50" height="50" relative="1" as="geometry">
                        <mxPoint x="1372.9" y="620" as="sourcePoint"/>
                        <mxPoint x="1472.9" y="620" as="targetPoint"/>
                    </mxGeometry>
                </mxCell>
                <mxCell id="80" value="&lt;span style=&quot;&quot;&gt;DrinkingFactory&lt;/span&gt;" style="text;html=1;strokeColor=none;fillColor=none;align=center;verticalAlign=middle;whiteSpace=wrap;rounded=0;fontColor=default;" parent="1" vertex="1">
                    <mxGeometry x="1370" y="590" width="100" height="30" as="geometry"/>
                </mxCell>
                <mxCell id="81" value="&lt;div style=&quot;text-align: left&quot;&gt;&lt;span&gt;+ produceTea(): Tea&lt;/span&gt;&lt;/div&gt;&lt;div style=&quot;text-align: left&quot;&gt;&lt;span&gt;+ produceCoffee(): Coffee&lt;/span&gt;&lt;/div&gt;&lt;div style=&quot;text-align: left&quot;&gt;&lt;span&gt;+ produceSodas(): Sodas&lt;/span&gt;&lt;/div&gt;" style="text;html=1;strokeColor=none;fillColor=none;align=center;verticalAlign=middle;whiteSpace=wrap;rounded=0;fontColor=#FFFFFF;" parent="1" vertex="1">
                    <mxGeometry x="1330" y="630" width="185.8" height="30" as="geometry"/>
                </mxCell>
                <mxCell id="82" value="" style="endArrow=block;html=1;fontColor=#FFFFFF;exitX=0.5;exitY=1;exitDx=0;exitDy=0;dashed=1;endFill=0;" parent="1" edge="1">
                    <mxGeometry width="50" height="50" relative="1" as="geometry">
                        <mxPoint x="1299.2" y="500" as="sourcePoint"/>
                        <mxPoint x="1349.2" y="550" as="targetPoint"/>
                    </mxGeometry>
                </mxCell>
                <mxCell id="83" value="" style="endArrow=block;html=1;fontColor=#FFFFFF;exitX=0.505;exitY=1.064;exitDx=0;exitDy=0;dashed=1;endFill=0;exitPerimeter=0;" parent="1" edge="1">
                    <mxGeometry width="50" height="50" relative="1" as="geometry">
                        <mxPoint x="1520.8000000000002" y="501.9200000000001" as="sourcePoint"/>
                        <mxPoint x="1480" y="550" as="targetPoint"/>
                    </mxGeometry>
                </mxCell>
                <mxCell id="84" value="Moca" style="swimlane;fontStyle=0;childLayout=stackLayout;horizontal=1;startSize=30;horizontalStack=0;resizeParent=1;resizeParentMax=0;resizeLast=0;collapsible=1;marginBottom=0;fillColor=#f9f7ed;strokeColor=#36393d;fontColor=#000000;" parent="1" vertex="1">
                    <mxGeometry x="1251" y="235" width="140" height="60" as="geometry"/>
                </mxCell>
                <mxCell id="85" value="+ show():void" style="text;strokeColor=#36393d;fillColor=#f9f7ed;align=left;verticalAlign=middle;spacingLeft=4;spacingRight=4;overflow=hidden;points=[[0,0.5],[1,0.5]];portConstraint=eastwest;rotatable=0;fontColor=#000000;" parent="84" vertex="1">
                    <mxGeometry y="30" width="140" height="30" as="geometry"/>
                </mxCell>
                <mxCell id="86" value="PuEr" style="swimlane;fontStyle=0;childLayout=stackLayout;horizontal=1;startSize=30;horizontalStack=0;resizeParent=1;resizeParentMax=0;resizeLast=0;collapsible=1;marginBottom=0;fillColor=#f9f7ed;strokeColor=#36393d;fontColor=#000000;" parent="1" vertex="1">
                    <mxGeometry x="1091" y="235" width="140" height="60" as="geometry"/>
                </mxCell>
                <mxCell id="87" value="+ show():void" style="text;strokeColor=#36393d;fillColor=#f9f7ed;align=left;verticalAlign=middle;spacingLeft=4;spacingRight=4;overflow=hidden;points=[[0,0.5],[1,0.5]];portConstraint=eastwest;rotatable=0;fontColor=#000000;" parent="86" vertex="1">
                    <mxGeometry y="30" width="140" height="30" as="geometry"/>
                </mxCell>
                <mxCell id="88" value="" style="ellipse;whiteSpace=wrap;html=1;aspect=fixed;fontColor=#000000;" parent="1" vertex="1">
                    <mxGeometry x="1211" y="75" width="40" height="40" as="geometry"/>
                </mxCell>
                <mxCell id="89" value="" style="endArrow=none;html=1;fontColor=#000000;" parent="1" edge="1">
                    <mxGeometry width="50" height="50" relative="1" as="geometry">
                        <mxPoint x="1181" y="145" as="sourcePoint"/>
                        <mxPoint x="1281" y="145" as="targetPoint"/>
                    </mxGeometry>
                </mxCell>
                <mxCell id="90" value="Tea" style="text;html=1;strokeColor=none;fillColor=none;align=center;verticalAlign=middle;whiteSpace=wrap;rounded=0;fontColor=#FFFFFF;" parent="1" vertex="1">
                    <mxGeometry x="1201" y="115" width="60" height="30" as="geometry"/>
                </mxCell>
                <mxCell id="91" value="+ show() : void" style="text;html=1;strokeColor=none;fillColor=none;align=center;verticalAlign=middle;whiteSpace=wrap;rounded=0;fontColor=#FFFFFF;" parent="1" vertex="1">
                    <mxGeometry x="1181" y="145" width="100" height="30" as="geometry"/>
                </mxCell>
                <mxCell id="92" value="" style="endArrow=block;html=1;fontColor=#FFFFFF;exitX=0.5;exitY=0;exitDx=0;exitDy=0;dashed=1;endFill=0;" parent="1" source="86" edge="1">
                    <mxGeometry width="50" height="50" relative="1" as="geometry">
                        <mxPoint x="1151" y="235" as="sourcePoint"/>
                        <mxPoint x="1201" y="185" as="targetPoint"/>
                    </mxGeometry>
                </mxCell>
                <mxCell id="93" value="" style="endArrow=block;html=1;fontColor=#FFFFFF;exitX=0.5;exitY=0;exitDx=0;exitDy=0;dashed=1;endFill=0;entryX=0;entryY=0.75;entryDx=0;entryDy=0;" parent="1" source="84" target="101" edge="1">
                    <mxGeometry width="50" height="50" relative="1" as="geometry">
                        <mxPoint x="1171" y="245" as="sourcePoint"/>
                        <mxPoint x="1271" y="185" as="targetPoint"/>
                    </mxGeometry>
                </mxCell>
                <mxCell id="94" value="Latte" style="swimlane;fontStyle=0;childLayout=stackLayout;horizontal=1;startSize=30;horizontalStack=0;resizeParent=1;resizeParentMax=0;resizeLast=0;collapsible=1;marginBottom=0;fillColor=#f9f7ed;strokeColor=#36393d;fontColor=#000000;" parent="1" vertex="1">
                    <mxGeometry x="1589.2" y="235" width="140" height="60" as="geometry"/>
                </mxCell>
                <mxCell id="95" value="+ show():void" style="text;strokeColor=#36393d;fillColor=#f9f7ed;align=left;verticalAlign=middle;spacingLeft=4;spacingRight=4;overflow=hidden;points=[[0,0.5],[1,0.5]];portConstraint=eastwest;rotatable=0;fontColor=#000000;" parent="94" vertex="1">
                    <mxGeometry y="30" width="140" height="30" as="geometry"/>
                </mxCell>
                <mxCell id="96" value="MaoJian    " style="swimlane;fontStyle=0;childLayout=stackLayout;horizontal=1;startSize=30;horizontalStack=0;resizeParent=1;resizeParentMax=0;resizeLast=0;collapsible=1;marginBottom=0;fillColor=#f9f7ed;strokeColor=#36393d;fontColor=#000000;" parent="1" vertex="1">
                    <mxGeometry x="1429.2" y="235" width="140" height="60" as="geometry"/>
                </mxCell>
                <mxCell id="97" value="+ show():void" style="text;strokeColor=#36393d;fillColor=#f9f7ed;align=left;verticalAlign=middle;spacingLeft=4;spacingRight=4;overflow=hidden;points=[[0,0.5],[1,0.5]];portConstraint=eastwest;rotatable=0;fontColor=#000000;" parent="96" vertex="1">
                    <mxGeometry y="30" width="140" height="30" as="geometry"/>
                </mxCell>
                <mxCell id="98" value="" style="ellipse;whiteSpace=wrap;html=1;aspect=fixed;fontColor=#000000;" parent="1" vertex="1">
                    <mxGeometry x="1549.2" y="75" width="40" height="40" as="geometry"/>
                </mxCell>
                <mxCell id="99" value="" style="endArrow=none;html=1;fontColor=#000000;" parent="1" edge="1">
                    <mxGeometry width="50" height="50" relative="1" as="geometry">
                        <mxPoint x="1519.2" y="145" as="sourcePoint"/>
                        <mxPoint x="1619.2" y="145" as="targetPoint"/>
                    </mxGeometry>
                </mxCell>
                <mxCell id="100" value="Coffee" style="text;html=1;strokeColor=none;fillColor=none;align=center;verticalAlign=middle;whiteSpace=wrap;rounded=0;fontColor=#FFFFFF;" parent="1" vertex="1">
                    <mxGeometry x="1539.2" y="115" width="60" height="30" as="geometry"/>
                </mxCell>
                <mxCell id="101" value="+ show():void" style="text;html=1;strokeColor=none;fillColor=none;align=center;verticalAlign=middle;whiteSpace=wrap;rounded=0;fontColor=#FFFFFF;" parent="1" vertex="1">
                    <mxGeometry x="1519.2" y="145" width="100" height="30" as="geometry"/>
                </mxCell>
                <mxCell id="102" value="" style="endArrow=block;html=1;fontColor=#FFFFFF;exitX=0.5;exitY=0;exitDx=0;exitDy=0;dashed=1;endFill=0;entryX=1;entryY=1;entryDx=0;entryDy=0;" parent="1" source="96" target="91" edge="1">
                    <mxGeometry width="50" height="50" relative="1" as="geometry">
                        <mxPoint x="1489.2" y="235" as="sourcePoint"/>
                        <mxPoint x="1290" y="170" as="targetPoint"/>
                    </mxGeometry>
                </mxCell>
                <mxCell id="103" value="" style="endArrow=block;html=1;fontColor=#FFFFFF;exitX=0.5;exitY=0;exitDx=0;exitDy=0;dashed=1;endFill=0;entryX=0.75;entryY=1;entryDx=0;entryDy=0;" parent="1" source="94" target="101" edge="1">
                    <mxGeometry width="50" height="50" relative="1" as="geometry">
                        <mxPoint x="1509.2" y="245" as="sourcePoint"/>
                        <mxPoint x="1609.2" y="185" as="targetPoint"/>
                    </mxGeometry>
                </mxCell>
                <mxCell id="104" value="" style="endArrow=open;html=1;fontColor=#FFFFFF;dashed=1;endFill=0;entryX=0.464;entryY=1.033;entryDx=0;entryDy=0;entryPerimeter=0;" parent="1" target="87" edge="1">
                    <mxGeometry width="50" height="50" relative="1" as="geometry">
                        <mxPoint x="1250.69" y="390" as="sourcePoint"/>
                        <mxPoint x="1160" y="300" as="targetPoint"/>
                    </mxGeometry>
                </mxCell>
                <mxCell id="105" value="create" style="edgeLabel;html=1;align=center;verticalAlign=middle;resizable=0;points=[];fontColor=#FFFFFF;" parent="104" vertex="1" connectable="0">
                    <mxGeometry x="0.1056" relative="1" as="geometry">
                        <mxPoint as="offset"/>
                    </mxGeometry>
                </mxCell>
                <mxCell id="106" value="" style="endArrow=open;html=1;fontColor=#FFFFFF;dashed=1;endFill=0;entryX=0.5;entryY=1;entryDx=0;entryDy=0;exitX=0.5;exitY=0;exitDx=0;exitDy=0;" parent="1" source="66" target="84" edge="1">
                    <mxGeometry width="50" height="50" relative="1" as="geometry">
                        <mxPoint x="1260.69" y="400" as="sourcePoint"/>
                        <mxPoint x="1170" y="310" as="targetPoint"/>
                    </mxGeometry>
                </mxCell>
                <mxCell id="107" value="create" style="edgeLabel;html=1;align=center;verticalAlign=middle;resizable=0;points=[];fontColor=#FFFFFF;" parent="106" vertex="1" connectable="0">
                    <mxGeometry x="0.1056" relative="1" as="geometry">
                        <mxPoint as="offset"/>
                    </mxGeometry>
                </mxCell>
                <mxCell id="108" value="" style="endArrow=open;html=1;fontColor=#FFFFFF;dashed=1;endFill=0;entryX=0.477;entryY=0.967;entryDx=0;entryDy=0;exitX=0.5;exitY=0;exitDx=0;exitDy=0;entryPerimeter=0;" parent="1" source="69" target="95" edge="1">
                    <mxGeometry width="50" height="50" relative="1" as="geometry">
                        <mxPoint x="1580" y="390" as="sourcePoint"/>
                        <mxPoint x="1651" y="295" as="targetPoint"/>
                    </mxGeometry>
                </mxCell>
                <mxCell id="109" value="create" style="edgeLabel;html=1;align=center;verticalAlign=middle;resizable=0;points=[];fontColor=#FFFFFF;" parent="108" vertex="1" connectable="0">
                    <mxGeometry x="0.1056" relative="1" as="geometry">
                        <mxPoint as="offset"/>
                    </mxGeometry>
                </mxCell>
                <mxCell id="110" value="" style="endArrow=open;html=1;fontColor=#FFFFFF;dashed=1;endFill=0;entryX=0.5;entryY=1;entryDx=0;entryDy=0;exitX=0.5;exitY=0;exitDx=0;exitDy=0;" parent="1" source="69" target="96" edge="1">
                    <mxGeometry width="50" height="50" relative="1" as="geometry">
                        <mxPoint x="1590.8000000000002" y="400" as="sourcePoint"/>
                        <mxPoint x="1665.98" y="304.01" as="targetPoint"/>
                    </mxGeometry>
                </mxCell>
                <mxCell id="111" value="create" style="edgeLabel;html=1;align=center;verticalAlign=middle;resizable=0;points=[];fontColor=#FFFFFF;" parent="110" vertex="1" connectable="0">
                    <mxGeometry x="0.1056" relative="1" as="geometry">
                        <mxPoint as="offset"/>
                    </mxGeometry>
                </mxCell>
                <mxCell id="112" value="Client" style="swimlane;fontStyle=0;childLayout=stackLayout;horizontal=1;startSize=30;horizontalStack=0;resizeParent=1;resizeParentMax=0;resizeLast=0;collapsible=1;marginBottom=0;fontColor=#FFFFFF;" parent="1" vertex="1">
                    <mxGeometry x="1880" y="290" width="140" height="60" as="geometry"/>
                </mxCell>
                <mxCell id="113" value="Item 1" style="text;strokeColor=none;fillColor=none;align=left;verticalAlign=middle;spacingLeft=4;spacingRight=4;overflow=hidden;points=[[0,0.5],[1,0.5]];portConstraint=eastwest;rotatable=0;fontColor=#FFFFFF;" parent="112" vertex="1">
                    <mxGeometry y="30" width="140" height="30" as="geometry"/>
                </mxCell>
                <mxCell id="114" value="" style="endArrow=open;html=1;dashed=1;fontColor=#FFFFFF;exitX=0.521;exitY=1.006;exitDx=0;exitDy=0;exitPerimeter=0;endFill=0;" parent="1" source="113" edge="1">
                    <mxGeometry width="50" height="50" relative="1" as="geometry">
                        <mxPoint x="1960" y="300" as="sourcePoint"/>
                        <mxPoint x="1530" y="610" as="targetPoint"/>
                        <Array as="points">
                            <mxPoint x="1953" y="610"/>
                        </Array>
                    </mxGeometry>
                </mxCell>
                <mxCell id="115" value="" style="endArrow=open;html=1;dashed=1;fontColor=#FFFFFF;endFill=0;" parent="1" edge="1">
                    <mxGeometry width="50" height="50" relative="1" as="geometry">
                        <mxPoint x="1959" y="288" as="sourcePoint"/>
                        <mxPoint x="1240" y="60" as="targetPoint"/>
                        <Array as="points">
                            <mxPoint x="1959" y="-40"/>
                            <mxPoint x="1660" y="-40"/>
                            <mxPoint x="1240" y="-40"/>
                        </Array>
                    </mxGeometry>
                </mxCell>
                <mxCell id="116" value="" style="endArrow=open;html=1;dashed=1;fontColor=#FFFFFF;endFill=0;" parent="1" edge="1">
                    <mxGeometry width="50" height="50" relative="1" as="geometry">
                        <mxPoint x="1960" y="286" as="sourcePoint"/>
                        <mxPoint x="1650" y="110" as="targetPoint"/>
                        <Array as="points">
                            <mxPoint x="1960" y="234"/>
                            <mxPoint x="1960" y="160"/>
                            <mxPoint x="1960" y="110"/>
                            <mxPoint x="1710" y="110"/>
                        </Array>
                    </mxGeometry>
                </mxCell>
            </root>
        </mxGraphModel>
    </diagram>
</mxfile>